<svg viewBox="0 0 567 227" xmlns="http://www.w3.org/2000/svg" fill-rule="evenodd" clip-rule="evenodd" stroke-linejoin="round" stroke-miterlimit="1.414"><path d="M426.769 122.464v-6.284c0-13.264-6.284-19.745-21.142-19.745-8.078 0-13.463 2.292-19.346 6.78-2.594 1.996-5.485 2.694-7.379 2.694-2.095 0-4.388-.898-5.885-2.694-1.696-1.893-2.392-3.59-2.392-6.281 0-4.588 4.286-8.677 9.472-11.668 7.08-4.088 15.257-6.084 25.73-6.084 27.124 0 41.386 11.867 41.386 34.805v54.448c0 4.987-.2 6.882-1.497 9.175-1.497 2.792-4.787 4.687-8.676 4.687-3.29 0-5.783-1.197-7.38-2.89-1.197-1.398-2.093-2.994-2.292-7.283-7.978 7.781-14.76 10.473-27.127 10.473-12.665 0-21.142-2.892-27.224-9.175-5.186-5.286-8.077-13.065-8.077-21.641 0-16.951 12.066-29.317 35.002-29.317h26.827zm-174.816 45.97v-74.99c0-4.887-.3-6.683-1.497-9.076-1.397-2.692-4.288-4.787-8.676-4.787s-7.28 2.095-8.677 4.787c-1.195 2.393-1.494 4.189-1.494 9.076v74.99c0 4.888.3 6.684 1.494 9.076 1.397 2.692 4.289 4.787 8.677 4.787s7.28-2.095 8.676-4.787c1.197-2.392 1.497-4.188 1.497-9.075zm68.51 11.271c1.993-1.796 3.39-4.088 4.987-8.776l25.827-75.492c1.197-3.59 2.095-6.68 1.097-9.772-.998-3.093-4.887-6.084-9.474-6.084-6.182 0-8.078 4.388-9.872 9.774l-20.144 60.732-20.144-60.732c-1.796-5.386-3.69-9.774-9.874-9.774-4.587 0-8.476 2.991-9.474 6.084-.996 3.091-.1 6.182 1.097 9.772l25.83 75.492c1.694 5.085 2.99 6.98 4.986 8.776 2.094 1.794 4.488 2.592 7.58 2.592 3.09 0 5.482-.798 7.578-2.592zm-123.16 1.794h-64.421c-3.191 0-6.98 0-10.071-3.09-3.094-3.092-3.094-6.88-3.094-10.074V57.745c0-5.284.1-6.98 1.597-9.771 1.596-2.892 4.887-4.887 9.175-4.887 4.288 0 7.579 1.995 9.173 4.887 1.497 2.791 1.597 4.487 1.597 9.771v104.608h56.044c4.588 0 6.583.2 8.776 1.395 2.592 1.496 4.388 4.388 4.388 8.177 0 3.792-1.796 6.683-4.388 8.177-2.193 1.198-4.188 1.397-8.776 1.397zm187.481-30.015c0-9.375 6.085-14.561 18.052-14.561h23.933v7.978c0 7.478-1.297 12.066-4.488 15.057-5.186 4.987-11.168 5.785-18.45 5.785-12.862 0-19.047-5.086-19.047-14.26zm-155.27-96.131c0 6.78 5.485 12.266 12.266 12.266a12.257 12.257 0 0 0 12.266-12.266c0-6.78-5.483-12.266-12.266-12.266-6.78 0-12.266 5.485-12.266 12.266z" fill="none" stroke="#000" stroke-width="2.26772"/><path d="M486.635 226.772H80.295c-24.62 0-43.44-8.311-57.87-22.74C.785 182.39 0 160.118 0 113.226c0-46.892.785-69.16 22.425-90.804C36.855 7.996 55.675-.315 80.295-.315c24.458 0 406.083.315 406.34.315 24.464 0 43.284 7.996 57.71 22.423 21.644 21.643 22.585 43.912 22.585 90.804s-.941 69.163-22.584 90.804c-14.427 14.43-33.247 22.741-57.711 22.741zM49.89 108.851a4.537 4.537 0 0 1 4.535 4.535 4.537 4.537 0 0 1-4.535 4.535 4.537 4.537 0 0 1-4.536-4.535 4.537 4.537 0 0 1 4.536-4.535zm467.15 0a4.537 4.537 0 0 1 4.536 4.535 4.537 4.537 0 0 1-4.536 4.535 4.537 4.537 0 0 1-4.535-4.535 4.537 4.537 0 0 1 4.535-4.535z" fill="none" stroke="#ec5b00" stroke-width=".9977968"/></svg>