<?xml version="1.0" encoding="UTF-8" standalone="no"?>
<!DOCTYPE svg PUBLIC "-//W3C//DTD SVG 1.1//EN" "http://www.w3.org/Graphics/SVG/1.1/DTD/svg11.dtd">
<svg width="100%" height="100%" viewBox="0 0 250 100" version="1.1" xmlns="http://www.w3.org/2000/svg" xmlns:xlink="http://www.w3.org/1999/xlink" xml:space="preserve" style="fill-rule:evenodd;clip-rule:evenodd;stroke-linejoin:round;stroke-miterlimit:1.41421;">
    <path d="M214.592,100L35.408,100C24.551,100 16.252,96.335 9.889,89.972C0.346,80.429 0,70.608 0,49.93C0,29.252 0.346,19.432 9.889,9.888C16.252,3.526 24.551,-0.139 35.408,-0.139C46.193,-0.139 214.479,0 214.592,0L214.592,-0.139C225.38,-0.139 233.679,3.526 240.041,9.888C249.585,19.432 250,29.252 250,49.93C250,70.608 249.585,80.429 240.041,89.972C233.679,96.335 225.38,100 214.592,100ZM22,48C23.104,48 24,48.896 24,50C24,51.104 23.104,52 22,52C20.896,52 20,51.104 20,50C20,48.896 20.896,48 22,48ZM228,48C229.104,48 230,48.896 230,50C230,51.104 229.104,52 228,52C226.896,52 226,51.104 226,50C226,48.896 226.896,48 228,48Z" style="fill:rgb(236,91,0);"/>
    <g transform="matrix(1,0,0,1,0,-2)">
        <path d="M188.193,56.003L188.193,53.232C188.193,47.383 185.422,44.525 178.87,44.525C175.308,44.525 172.933,45.536 170.339,47.515C169.195,48.395 167.92,48.703 167.085,48.703C166.161,48.703 165.15,48.307 164.49,47.515C163.742,46.68 163.435,45.932 163.435,44.745C163.435,42.722 165.325,40.919 167.612,39.6C170.734,37.797 174.34,36.917 178.958,36.917C190.919,36.917 197.208,42.15 197.208,52.265L197.208,76.275C197.208,78.474 197.12,79.31 196.548,80.321C195.888,81.552 194.437,82.388 192.722,82.388C191.271,82.388 190.172,81.86 189.468,81.113C188.94,80.497 188.545,79.793 188.457,77.902C184.939,81.333 181.948,82.52 176.495,82.52C170.91,82.52 167.172,81.245 164.49,78.474C162.203,76.143 160.928,72.713 160.928,68.931C160.928,61.456 166.249,56.003 176.363,56.003L188.193,56.003ZM111.104,76.275L111.104,43.206C111.104,41.051 110.972,40.259 110.444,39.204C109.828,38.017 108.553,37.093 106.618,37.093C104.683,37.093 103.408,38.017 102.792,39.204C102.265,40.259 102.133,41.051 102.133,43.206L102.133,76.275C102.133,78.43 102.265,79.222 102.792,80.277C103.408,81.464 104.683,82.388 106.618,82.388C108.553,82.388 109.828,81.464 110.444,80.277C110.972,79.222 111.104,78.43 111.104,76.275ZM141.315,81.245C142.194,80.453 142.81,79.442 143.514,77.375L154.903,44.085C155.431,42.502 155.827,41.139 155.387,39.776C154.947,38.412 153.232,37.093 151.209,37.093C148.483,37.093 147.647,39.028 146.856,41.403L137.973,68.184L129.09,41.403C128.298,39.028 127.463,37.093 124.736,37.093C122.713,37.093 120.998,38.412 120.558,39.776C120.119,41.139 120.514,42.502 121.042,44.085L132.432,77.375C133.179,79.617 133.751,80.453 134.631,81.245C135.554,82.036 136.61,82.388 137.973,82.388C139.336,82.388 140.391,82.036 141.315,81.245ZM87.005,82.036L58.597,82.036C57.19,82.036 55.519,82.036 54.156,80.673C52.792,79.31 52.792,77.639 52.792,76.231L52.792,27.464C52.792,25.134 52.836,24.386 53.496,23.155C54.2,21.88 55.651,21 57.542,21C59.433,21 60.884,21.88 61.587,23.155C62.247,24.386 62.291,25.134 62.291,27.464L62.291,73.593L87.005,73.593C89.028,73.593 89.908,73.681 90.875,74.208C92.018,74.868 92.81,76.143 92.81,77.814C92.81,79.486 92.018,80.761 90.875,81.42C89.908,81.948 89.028,82.036 87.005,82.036ZM169.679,68.8C169.679,64.666 172.362,62.379 177.639,62.379L188.193,62.379L188.193,65.897C188.193,69.195 187.621,71.218 186.214,72.537C183.927,74.736 181.289,75.088 178.078,75.088C172.406,75.088 169.679,72.845 169.679,68.8ZM101.209,26.409C101.209,29.399 103.628,31.818 106.618,31.818C109.609,31.818 112.027,29.399 112.027,26.409C112.027,23.419 109.609,21 106.618,21C103.628,21 101.209,23.419 101.209,26.409Z" style="fill:none;stroke:black;stroke-width:1px;"/>
    </g>
</svg>
