<?xml version="1.0" encoding="UTF-8" standalone="no"?>
<!DOCTYPE svg PUBLIC "-//W3C//DTD SVG 1.1//EN" "http://www.w3.org/Graphics/SVG/1.1/DTD/svg11.dtd">
<svg width="100%" height="100%" viewBox="0 0 567 227" version="1.1" xmlns="http://www.w3.org/2000/svg" xmlns:xlink="http://www.w3.org/1999/xlink" xml:space="preserve" style="fill-rule:evenodd;clip-rule:evenodd;stroke-linejoin:round;stroke-miterlimit:1.41421;">
    <g transform="matrix(2.26772,0,0,2.26772,0,0)">
        <path d="M214.592,100L35.408,100C24.551,100 16.252,96.335 9.889,89.972C0.346,80.429 0,70.608 0,49.93C0,29.252 0.346,19.432 9.889,9.888C16.252,3.526 24.551,-0.139 35.408,-0.139C46.193,-0.139 214.479,0 214.592,0C225.38,0 233.679,3.526 240.041,9.888C249.585,19.432 250,29.252 250,49.93C250,70.608 249.585,80.429 240.041,89.972C233.679,96.335 225.38,100 214.592,100ZM22,48C23.104,48 24,48.896 24,50C24,51.104 23.104,52 22,52C20.896,52 20,51.104 20,50C20,48.896 20.896,48 22,48ZM228,48C229.104,48 230,48.896 230,50C230,51.104 229.104,52 228,52C226.896,52 226,51.104 226,50C226,48.896 226.896,48 228,48Z" style="fill:rgb(236,91,0);"/>
    </g>
    <g transform="matrix(2.26772,0,0,2.26772,181.546,-2.26772)">
        <text x="-33.672px" y="80.52px" style="font-family:'FFDINRoundPro-Medium', 'FF DIN Round Pro', sans-serif;font-weight:500;font-size:85.802px;">Liv<tspan x="76.197px " y="80.52px ">a</tspan></text>
    </g>
</svg>
