<svg version="1" xmlns="http://www.w3.org/2000/svg" width="933.333" height="933.333" viewBox="0 0 700.000000 700.000000"><path d="M326.8.5c-.2.1-4.9.5-10.6.9-5.6.4-10.8.9-11.5 1.1-.6.2-3.9.6-7.2.9-3.3.4-6.9.8-8 1-5.6 1-9.4 1.6-13 2.1-2.2.4-4.8.8-5.7 1.1-1 .3-3 .7-4.5 1-7.9 1.4-25.2 5.9-36.3 9.5-39.6 12.8-72.8 30.3-104.9 55.3-9.5 7.3-36.2 32.8-43.7 41.6-31.9 37.5-55.3 82.8-68.3 132.2-4.2 15.8-8.5 37.7-9.7 49.3-.3 2.7-.7 6.1-.9 7.5-1.9 11.5-2.7 59.2-1.2 78.5 1.2 15.5 2.1 23.1 4.8 37.9 1.1 6.1 2.2 12.4 2.5 14.1.7 4.2 7.1 28.6 9 34.3 3.2 9.7 7.6 21.8 9.5 25.9 1 2.4 1.9 5 1.9 5.8 0 .8.5 1.5 1 1.5.6 0 1 .7 1 1.5 0 1.6 8.3 18.8 14 29 8.9 16 22.2 35.4 33.7 49.2C82.3 586 91.9 596 99.9 604c36.3 35.7 77.4 60.6 128.5 77.4 10.6 3.5 27.2 8 33.8 9.1 1.8.3 4.9 1 6.8 1.5 1.9.5 6.4 1.4 10 1.9 3.6.6 7.6 1.3 9 1.6 1.3.2 5.6.7 9.5 1.1 3.8.3 7.3.8 7.6 1 1.6.9 25.3 1.9 45.9 1.9 20 0 35.5-.7 44.5-2 1.7-.2 5.3-.6 8-.9 4.8-.6 6.5-.8 14.5-2.2 1.9-.3 4.6-.8 6-1 1.4-.2 3.6-.7 5-1 1.4-.3 3.7-.8 5.3-1.1 4.4-.7 24.4-5.9 33.6-8.7 41.8-12.8 86.4-37.3 117.6-64.5 6.2-5.4 29.6-29 33.9-34.1 8.4-10.1 21-27.4 27.6-38.1 8.5-13.6 20.2-36.7 25.5-49.9 2-5.2 4.1-10.4 4.6-11.5 4.2-10 14.2-47 16.3-60.5.3-1.9.7-4.4 1-5.5.2-1.1.7-4.3 1-7 .4-2.8.9-6.4 1.2-8 .5-4 1.3-11.3 2.1-21.5 1.4-16.9.7-66.9-1.1-78-.3-1.4-.7-4.8-1-7.5-.6-4.8-1.1-8-2.1-13.5-.3-1.4-.8-4.3-1.1-6.5-1.6-11.5-7.5-34.5-13-51C658.7 159.8 618 104 562.6 64.2c-5.5-4-12.5-8.7-15.5-10.5-2.9-1.8-7.4-4.4-10-6-8.5-5.1-29.5-15.4-40.6-20-19.2-7.9-39.1-14-61-18.8-12.4-2.6-12.2-2.6-18.6-3.4-3-.4-5.6-.8-5.9-1-.3-.2-5.1-.8-10.5-1.4-5.5-.6-12-1.4-14.5-1.7-4.8-.5-58.6-1.4-59.2-.9zm-58.1 94.1c18.2 3.8 31.1 19.2 32.6 38.7.6 7.8-1.2 17.7-4.4 24.3-1.6 3.4-2.9 6.4-2.9 6.6 0 .2 14.7.3 32.6.3 17.9 0 32.8.3 33 .6.2.4-1.7 5.1-4.2 10.6-2.5 5.4-6.1 12.9-7.9 16.8-1.8 3.8-5.4 11.5-8 17-2.6 5.5-5.8 12.4-7.1 15.2l-2.3 5.3 38.3.2 38.3.3-6.9 12.5c-3.8 6.9-8.3 15-10 18-1.7 3-4.8 8.9-7 13-2.3 4.1-6.1 11.3-8.6 16-8 14.8-23.3 46.2-22.8 46.7.2.2 3.1.6 6.3.8 21.3 1.5 37 5.7 54.3 14.7 29 15 49.8 40 62 74.3 8.9 25.2 18.1 68.6 22.5 106 .3 2.7 1 8.4 1.5 12.5s1.1 9.7 1.5 12.5c.3 2.7.7 6.6 1 8.5.2 1.9.7 6.2 1 9.5.3 3.3.8 7.1 1 8.5.2 1.4.6 5.6 1 9.5.3 3.8.8 8.5 1.1 10.2l.6 3.3h-76l-1-7.7c-.6-4.3-1.4-10.3-1.7-13.3-.3-3-.8-6.6-1-8-.2-1.4-.7-5-1-8-.4-3-.8-6.6-1-8-.2-1.4-.7-5-1-8-.3-3-.8-6.2-1-7-.2-.8-.7-3.8-1-6.5-.3-2.8-.7-6.4-1-8-.3-1.7-.7-4.7-1-6.8-1.6-11.5-2.4-16.8-3-19.7-.2-1.3-.7-4.2-1.1-6.5-.9-6-4.2-21.9-6.5-31-12.8-50.5-31.7-69.5-70.8-70.9-14.2-.5-14.2-.5-18.1 8.9-1.1 2.7-2.5 5.7-2.9 6.6-1 1.8-5.5 12.9-9.9 24.4-4.2 11-13.1 40.2-14.7 48.5-.2.8-.8 3.3-1.3 5.5-.6 2.2-1.3 5.6-1.6 7.5-.3 1.9-1.3 7.3-2.1 12-1.7 9.1-2.1 11.8-3 19.5-.4 2.7-.8 6.1-1 7.5-1.7 11.6-3.3 39.1-3.4 59.2l-.1 9.8h-75.9l.4-12.8c.5-15.9 1.4-33.6 2-38.2.2-1.9.7-5.8 1-8.5 1.5-14.7 2.2-19.6 3.5-27.5.5-3 1.2-7.3 1.6-9.5 3.7-24.9 18.2-77 27.9-100 .6-1.7 2.5-6.2 4-10 1.5-3.9 4.1-9.8 5.7-13.3 1.5-3.4 2.8-6.4 2.8-6.6 0-1.4 20.3-42.8 28-57.1 2.3-4.4 6.3-11.8 8.8-16.5 2.5-4.7 8.5-15.8 13.4-24.7 4.8-8.9 8.8-16.4 8.8-16.7 0-.3-17.3-.7-38.4-.8l-38.3-.3 2.6-5.5c1.5-3 3.9-8.4 5.5-12 1.6-3.6 4.4-9.9 6.4-14 1.9-4.1 4.2-9.3 5.2-11.5 1-2.2 3.3-7.4 5.3-11.5 1.9-4.1 4.5-9.8 5.7-12.5 1.2-2.8 3.6-7.8 5.1-11.3 1.6-3.4 2.9-6.4 2.9-6.7 0-.2-1.5.1-3.2.6-1.8.5-5.5 1.2-8.3 1.5-5.1.7-43.2 1.2-45 .7-.6-.2-.9-15.8-.9-44.6.1-24.3.2-44.3.3-44.5.4-1 47.5.2 52.8 1.4z"/></svg>