<svg version="1" xmlns="http://www.w3.org/2000/svg" width="933.333" height="933.333" viewBox="0 0 700.000000 700.000000"><path d="M181.9 9.4c-.4.4-.3 2.6.2 4.9.8 4.4 1.3 10.1 2.6 27.7 1.5 20.1.8 73.7-1.1 90.5-.2 1.6-.7 6.1-1.1 10-.4 3.8-.9 7.4-1.2 7.9-.6.8 33.7.2 38.2-.8 1.1-.2 4.5-.7 7.5-1.1 3-.4 8.8-1.8 12.9-3.2 4-1.3 7.5-2.2 7.8-2 .2.3-.7 3.3-2 6.8-9.5 25.7-17.4 46.7-20.3 54.1-1.9 4.9-3.4 9.4-3.4 10.1 0 .8-.3 1.7-.7 2.1-.4.3-1.2 2.1-1.8 3.9-.7 1.7-2.8 7.6-4.8 12.9l-3.6 9.8 36.7.1c20.2 0 38.6 0 41-.1 2.3-.1 4.2.2 4.2.6 0 .4-5.5 11.6-12.2 24.8-17.6 34.8-23.3 46.2-36.3 73.1-13 26.7-14.9 30.7-26 56-22 50-41.3 112.9-47 153-.3 2.2-1 6.6-1.6 9.8-.5 3.2-1.2 7-1.3 8.5-1.3 10.5-2 15.8-2.1 16.2-.1.3-.5 4.5-.9 9.5-.4 4.9-.9 10.1-1.1 11.5-.4 2.3-1 11.7-2 27.5-.2 3.3-.7 17.6-1 31.7l-.7 25.8h3.4c31.2.4 94.1 0 94.6-.5.3-.3.7-7.4.8-15.8.2-17.5 1.2-44.6 2-52.7.3-3 .7-7.5.9-10 .3-2.5.7-7.7 1-11.5C267.2 557 280 502.1 297 458c3.9-10.1 4.1-10.8 11.5-27.8l5.8-13.2 4.3-.1c19.5-.5 29.3.3 40.9 3 25.3 6.1 42.2 22 55.2 52.1 4.8 11.1 8.4 21.4 11.2 32.5 2.3 9.2 4.8 21.2 7.2 34 1.1 6.3 1.5 8.3 2.4 12.5.3 1.4.8 4.5 1.1 7 .3 2.5.8 5.4 1 6.5.5 2.2 2.2 14 2.9 19.5.5 3.9 2.4 16.8 3.1 21.5 1.2 7.7 2.6 17.5 3 21.5.4 4.2 1.5 12.8 2 15.3.2 1 .6 4.8 1 8.5.3 3.7.7 6.9.9 7.2.2.3.6 3.9 1 8s.8 8.2 1 9c.6 3.4 1.9 14.6 1.7 15.3-.1.4.6.7 1.5.7 2.8.1 75.7.1 87.2.1l10.3-.1-.6-4.3c-.7-4.6-1.2-8.5-2.1-16.2-.3-2.8-.7-6.6-1-8.5-.2-1.9-.7-6-1-9-.3-3-.8-6.6-1-8-.2-1.4-.7-5.2-1-8.5-.6-5.9-1-8.7-2-16.3-.3-2-.7-5.5-1-7.7-.3-2.2-.7-4.9-.9-6-.2-1.1-.8-4.9-1.2-8.5-.4-3.6-.9-6.7-.9-7-.3-1-2.1-13.7-3.1-21.5-.8-6.2-6.4-39.5-7.4-44.5-.5-2.5-1.2-6-1.5-7.9-.5-2.7-4.2-19.9-7-32.1-9.4-41.6-27.7-76.5-53.1-101.5-28-27.5-63.4-42.9-104.1-45.1-6.5-.4-11.9-.7-12-.8-.3-.3 24.4-49.9 30.9-62.1 3-5.5 8.5-15.9 12.2-23 3.8-7.2 7.9-14.6 9.1-16.5 1.2-1.9 4.5-8 7.5-13.5 2.9-5.5 7-13 9.2-16.7 2.1-3.6 3.8-7.1 3.8-7.6 0-1-6.1-1.1-66.2-1.2H330l2.1-5.3c1.2-2.8 5.2-13.5 9.1-23.7 3.8-10.2 7.3-19.4 7.8-20.5 2.1-4.5 13-33.9 13-35 0-.9-9.4-1.1-38.2-1.1-21.1.1-38.9 0-39.5-.2-.9-.3-1-.9-.3-2.2 3.2-6.1 5.9-18.7 6.1-28.5.1-7.1-.8-16.2-1.7-17.7-.3-.5-.7-1.9-1-3.2-.6-3.5-4.3-11.5-7.9-17.1-9.9-15.7-30.9-28.2-52-31.1-2.2-.3-5.1-.8-6.5-1.1-4-.8-38.4-1.6-39.1-.9z"/></svg>