<?xml version="1.0" standalone="no"?>
<!DOCTYPE svg PUBLIC "-//W3C//DTD SVG 20010904//EN"
 "http://www.w3.org/TR/2001/REC-SVG-20010904/DTD/svg10.dtd">
<svg version="1.0" xmlns="http://www.w3.org/2000/svg"
 width="700.000000pt" height="700.000000pt" viewBox="0 0 700.000000 700.000000"
 preserveAspectRatio="xMidYMid meet">
<metadata>
Created by potrace 1.11, written by Peter Selinger 2001-2013
</metadata>
<g transform="translate(0.000000,700.000000) scale(0.100000,-0.100000)"
fill="#000000" stroke="none">
<path d="M3268 6995 c-2 -1 -49 -5 -106 -9 -56 -4 -108 -9 -115 -11 -6 -2 -39
-6 -72 -9 -33 -4 -69 -8 -80 -10 -56 -10 -94 -16 -130 -21 -22 -4 -48 -8 -57
-11 -10 -3 -30 -7 -45 -10 -79 -14 -252 -59 -363 -95 -396 -128 -728 -303
-1049 -553 -95 -73 -362 -328 -437 -416 -319 -375 -553 -828 -683 -1322 -42
-158 -85 -377 -97 -493 -3 -27 -7 -61 -9 -75 -19 -115 -27 -592 -12 -785 12
-155 21 -231 48 -379 11 -61 22 -124 25 -141 7 -42 71 -286 90 -343 32 -97 76
-218 95 -259 10 -24 19 -50 19 -58 0 -8 5 -15 10 -15 6 0 10 -7 10 -15 0 -16
83 -188 140 -290 89 -160 222 -354 337 -492 36 -43 132 -143 212 -223 363
-357 774 -606 1285 -774 106 -35 272 -80 338 -91 18 -3 49 -10 68 -15 19 -5
64 -14 100 -19 36 -6 76 -13 90 -16 13 -2 56 -7 95 -11 38 -3 73 -8 76 -10 16
-9 253 -19 459 -19 200 0 355 7 445 20 17 2 53 6 80 9 48 6 65 8 145 22 19 3
46 8 60 10 14 2 36 7 50 10 14 3 37 8 53 11 44 7 244 59 336 87 418 128 864
373 1176 645 62 54 296 290 339 341 84 101 210 274 276 381 85 136 202 367
255 499 20 52 41 104 46 115 42 100 142 470 163 605 3 19 7 44 10 55 2 11 7
43 10 70 4 28 9 64 12 80 5 40 13 113 21 215 14 169 7 669 -11 780 -3 14 -7
48 -10 75 -6 48 -11 80 -21 135 -3 14 -8 43 -11 65 -16 115 -75 345 -130 510
-217 657 -624 1215 -1178 1613 -55 40 -125 87 -155 105 -29 18 -74 44 -100 60
-85 51 -295 154 -406 200 -192 79 -391 140 -610 188 -124 26 -122 26 -186 34
-30 4 -56 8 -59 10 -3 2 -51 8 -105 14 -55 6 -120 14 -145 17 -48 5 -586 14
-592 9z m-581 -941 c182 -38 311 -192 326 -387 6 -78 -12 -177 -44 -243 -16
-34 -29 -64 -29 -66 0 -2 147 -3 326 -3 179 0 328 -3 330 -6 2 -4 -17 -51 -42
-106 -25 -54 -61 -129 -79 -168 -18 -38 -54 -115 -80 -170 -26 -55 -58 -124
-71 -152 l-23 -53 383 -2 383 -3 -69 -125 c-38 -69 -83 -150 -100 -180 -17
-30 -48 -89 -70 -130 -23 -41 -61 -113 -86 -160 -80 -148 -233 -462 -228 -467
2 -2 31 -6 63 -8 213 -15 370 -57 543 -147 290 -150 498 -400 620 -743 89
-252 181 -686 225 -1060 3 -27 10 -84 15 -125 5 -41 11 -97 15 -125 3 -27 7
-66 10 -85 2 -19 7 -62 10 -95 3 -33 8 -71 10 -85 2 -14 6 -56 10 -95 3 -38 8
-85 11 -102 l6 -33 -380 0 -380 0 -10 77 c-6 43 -14 103 -17 133 -3 30 -8 66
-10 80 -2 14 -7 50 -10 80 -4 30 -8 66 -10 80 -2 14 -7 50 -10 80 -3 30 -8 62
-10 70 -2 8 -7 38 -10 65 -3 28 -7 64 -10 80 -3 17 -7 47 -10 68 -16 115 -24
168 -30 197 -2 13 -7 42 -11 65 -9 60 -42 219 -65 310 -128 505 -317 695 -708
709 -142 5 -142 5 -181 -89 -11 -27 -25 -57 -29 -66 -10 -18 -55 -129 -99
-244 -42 -110 -131 -402 -147 -485 -2 -8 -8 -33 -13 -55 -6 -22 -13 -56 -16
-75 -3 -19 -13 -73 -21 -120 -17 -91 -21 -118 -30 -195 -4 -27 -8 -61 -10 -75
-17 -116 -33 -391 -34 -592 l-1 -98 -380 0 -379 0 4 128 c5 159 14 336 20 382
2 19 7 58 10 85 15 147 22 196 35 275 5 30 12 73 16 95 37 249 182 770 279
1000 6 17 25 62 40 100 15 39 41 98 57 133 15 34 28 64 28 66 0 14 203 428
280 571 23 44 63 118 88 165 25 47 85 158 134 247 48 89 88 164 88 167 0 3
-173 7 -384 8 l-383 3 26 55 c15 30 39 84 55 120 16 36 44 99 64 140 19 41 42
93 52 115 10 22 33 74 53 115 19 41 45 98 57 125 12 28 36 78 51 113 16 34 29
64 29 67 0 2 -15 -1 -32 -6 -18 -5 -55 -12 -83 -15 -51 -7 -432 -12 -450 -7
-6 2 -9 158 -9 446 1 243 2 443 3 445 4 10 475 -2 528 -14z"/>
</g>
</svg>
